<svg version="1.1" xmlns="http://www.w3.org/2000/svg" xmlns:xlink="http://www.w3.org/1999/xlink" width="142.09037" height="61.65732" viewBox="0,0,142.09037,61.65732"><g transform="translate(-58.57286,-120.16281)"><g data-paper-data="{&quot;isPaintingLayer&quot;:true}" fill-rule="nonzero" stroke-miterlimit="10" stroke-dasharray="" stroke-dashoffset="0" style="mix-blend-mode: normal"><g data-paper-data="{&quot;index&quot;:null}"><path d="M179.1978,169.11102c0.87082,0.87025 1.40933,2.07225 1.40933,3.39864c0,1.32639 -0.53851,2.52839 -1.40933,3.39864c-0.87025,0.87082 -2.07225,1.40933 -3.39864,1.40933c-1.32639,0 -2.52839,-0.53851 -3.39864,-1.40933c-0.87082,-0.87025 -1.40933,-2.07225 -1.40933,-3.39864c0,-1.32639 0.53851,-2.52839 1.40933,-3.39864c0.87025,-0.87082 2.07225,-1.40933 3.39864,-1.40933c1.32639,0 2.52839,0.53851 3.39864,1.40933z" fill="#f7c1d8" stroke="none" stroke-width="1" stroke-linecap="butt" stroke-linejoin="miter"/><path d="M175.79915,164.28903c4.6421,0 8.40555,3.76344 8.40555,8.40555c0,4.6421 -3.76344,8.40555 -8.40555,8.40555c-4.6421,0 -8.40555,-3.76344 -8.40555,-8.40555c0,-4.6421 3.76344,-8.40555 8.40555,-8.40555zM175.79915,176.8301c2.29807,-0.05547 4.12151,-1.95345 4.08454,-4.25152c-0.03642,-2.29807 -1.91983,-4.1372 -4.21846,-4.11928c-2.29807,0.01849 -4.15234,1.8862 -4.15289,4.18484c-0.00056,1.12802 0.45446,2.20842 1.2614,2.9963c0.80693,0.78788 1.89798,1.21712 3.02543,1.18967z" fill="#2f0000" stroke="#330000" stroke-width="1.44" stroke-linecap="round" stroke-linejoin="round"/><path d="M177.32056,171.12274c0.38946,0.39001 0.63041,0.92797 0.63041,1.52141c0,0.59343 -0.24096,1.13138 -0.63041,1.52141c-0.39001,0.38946 -0.92797,0.63041 -1.52141,0.63041c-0.59343,0 -1.13138,-0.24096 -1.52141,-0.63041c-0.38946,-0.39001 -0.63041,-0.92797 -0.63041,-1.52141c0,-0.59343 0.24096,-1.13138 0.63041,-1.52141c0.39001,-0.38946 0.92797,-0.63041 1.52141,-0.63041c0.59343,0 1.13138,0.24096 1.52141,0.63041z" fill="#ffffff" stroke="#da53d6" stroke-width="1.08" stroke-linecap="round" stroke-linejoin="round"/></g><g data-paper-data="{&quot;index&quot;:null}"><path d="M103.92859,165.28408c3.71356,0 6.72444,3.01086 6.72444,6.72444c0,3.71356 -3.01086,6.72444 -6.72444,6.72444c-3.71356,0 -6.72444,-3.01086 -6.72444,-6.72444c0,-3.71356 3.01086,-6.72444 6.72444,-6.72444z" fill="#f7c1d8" stroke="none" stroke-width="1" stroke-linecap="butt" stroke-linejoin="miter"/><path d="M103.92859,163.63659c4.6421,0 8.40555,3.76344 8.40555,8.40555c0,4.6421 -3.76344,8.40555 -8.40555,8.40555c-4.6421,0 -8.40555,-3.76344 -8.40555,-8.40555c0,-4.6421 3.76344,-8.40555 8.40555,-8.40555zM103.92859,176.17766c1.69287,0 3.21932,-1.01987 3.86711,-2.58386c0.64835,-1.56455 0.28971,-3.36502 -0.90724,-4.56197c-1.19695,-1.19695 -2.99742,-1.55559 -4.56197,-0.90724c-1.56399,0.64778 -2.58386,2.17423 -2.58386,3.86711c-0.00448,1.11177 0.43485,2.17872 1.22105,2.96492c0.7862,0.7862 1.85314,1.22553 2.96492,1.22105z" fill="#330000" stroke="#330000" stroke-width="1.44" stroke-linecap="round" stroke-linejoin="round"/><path d="M105.44999,170.4703c0.38946,0.39001 0.63041,0.92797 0.63041,1.52141c0,0.59343 -0.24096,1.13138 -0.63041,1.52141c-0.39001,0.38946 -0.92797,0.63041 -1.52141,0.63041c-0.59343,0 -1.13138,-0.24096 -1.52141,-0.63041c-0.38946,-0.39001 -0.63041,-0.92797 -0.63041,-1.52141c0,-0.59343 0.24096,-1.13138 0.63041,-1.52141c0.39001,-0.38946 0.92797,-0.63041 1.52141,-0.63041c0.59343,0 1.13138,0.24096 1.52141,0.63041z" fill="#ffffff" stroke="#da53d6" stroke-width="1.08" stroke-linecap="round" stroke-linejoin="round"/></g><g data-paper-data="{&quot;index&quot;:null}"><path d="M79.70381,165.28408c3.71356,0 6.72444,3.01086 6.72444,6.72444c0,3.71356 -3.01086,6.72444 -6.72444,6.72444c-3.71356,0 -6.72444,-3.01086 -6.72444,-6.72444c0,-3.71356 3.01086,-6.72444 6.72444,-6.72444z" fill="#f7c1d8" stroke="none" stroke-width="1" stroke-linecap="butt" stroke-linejoin="miter"/><path d="M79.70381,163.63659c4.6421,0 8.40555,3.76344 8.40555,8.40555c0,4.6421 -3.76344,8.40555 -8.40555,8.40555c-4.6421,0 -8.40555,-3.76344 -8.40555,-8.40555c0,-2.22915 0.88538,-4.36752 2.4617,-5.94384c1.57632,-1.57632 3.71469,-2.4617 5.94384,-2.4617zM79.70381,176.17766c2.31208,0 4.18597,-1.87387 4.18597,-4.18597c0,-2.31208 -1.87387,-4.18597 -4.18597,-4.18597c-2.31208,0 -4.18597,1.87387 -4.18597,4.18597c0,2.31208 1.87387,4.18597 4.18597,4.18597z" fill="#350000" stroke="#2f0000" stroke-width="1.44" stroke-linecap="round" stroke-linejoin="round"/><path d="M81.27564,170.4703c0.38946,0.39001 0.63041,0.92797 0.63041,1.52141c0,0.59343 -0.24096,1.13138 -0.63041,1.52141c-0.39001,0.38946 -0.92797,0.63041 -1.52141,0.63041c-0.59343,0 -1.13138,-0.24096 -1.52141,-0.63041c-0.38946,-0.39001 -0.63041,-0.92797 -0.63041,-1.52141c0,-0.59343 0.24096,-1.13138 0.63041,-1.52141c0.39001,-0.38946 0.92797,-0.63041 1.52141,-0.63041c0.59343,0 1.13138,0.24096 1.52141,0.63041z" fill="#ffffff" stroke="#da53d6" stroke-width="1.08" stroke-linecap="round" stroke-linejoin="round"/></g><g data-paper-data="{&quot;index&quot;:null}" stroke="#5e154d" stroke-linejoin="miter"><g><path d="M139.54403,173.47108h-14.15663v-7.38007h14.15663z" fill="#fdbb38" stroke-width="1.44" stroke-linecap="butt"/><path d="M135.36964,173.47108v-7.38007" fill="none" stroke-width="1.08" stroke-linecap="round"/><path d="M129.54666,166.09101v7.38007" fill="none" stroke-width="1.08" stroke-linecap="round"/></g><path d="M152.29407,166.09101h-93.00121v-5.26186h93.00121z" fill="#ffffff" stroke-width="1.44" stroke-linecap="round"/><path d="M152.29407,171.9917h-89.84017v-5.90069h89.84017z" fill="#fdbb38" stroke-width="1.44" stroke-linecap="butt"/></g><g data-paper-data="{&quot;index&quot;:null}"><path d="M194.05486,151.91607l-11.19618,-6.38822l-0.51419,-2.47123c0,0 10.10144,5.66533 12.27433,6.90936c2.47146,1.39532 2.45487,2.60572 2.45487,5.58128v17.09687h-1.75821v-17.26498c-0.03317,-1.51299 -0.08294,-2.75702 -1.26061,-3.46308z" fill="#25b0b7" stroke="none" stroke-width="1" stroke-linecap="butt" stroke-linejoin="miter"/><path d="M174.03443,120.88281c2.40511,0 3.43349,0.65563 3.99746,3.21092c0.11611,0.6052 0.39809,1.8156 0.72983,3.36222h-2.04019c-0.68338,0.00897 -1.23517,0.56821 -1.24402,1.26083v11.95269c0,0.69934 0.55455,1.26867 1.24402,1.27764h5.3244l0.26539,1.10953l0.54737,2.47123c0,0 3.61543,2.05677 5.46061,3.10646c1.89652,1.0789 5.76874,3.28176 5.76874,3.28176c1.17767,0.67244 1.22743,1.95009 1.22743,3.46308v17.26498h-9.33845c0,-5.77517 -4.6189,-10.4565 -10.31707,-10.4565c-5.69817,0 -10.31707,4.68132 -10.31707,10.4565h-13.66763v-51.76134z" fill="#d65f59" stroke="none" stroke-width="1" stroke-linecap="butt" stroke-linejoin="miter"/><path d="M162.00891,147.20897h-5.17513v-1.9837h5.17513z" fill="none" stroke="#660000" stroke-width="1.08" stroke-linecap="round" stroke-linejoin="round"/><path d="M191.25167,166.76027h-3.31739v-1.86603h3.31739z" fill="none" stroke="#5e154d" stroke-width="1.44" stroke-linecap="round" stroke-linejoin="round"/><path d="M155.88834,124.63168h15.3595c0.78401,0.00897 1.41763,0.65115 1.42647,1.44575v33.45406c-4.81297,0.77611 -8.63571,4.51602 -9.57066,9.36377h-7.23191c-0.78401,-0.00897 -1.41763,-0.65115 -1.42647,-1.44575v-41.37208c0.00885,-0.80132 0.65242,-1.44575 1.44306,-1.44575z" fill="none" stroke="#660000" stroke-width="1.08" stroke-linecap="round" stroke-linejoin="round"/><path d="M170.4019,150.20135h-1.92409v-3.61438h1.92409z" fill="none" stroke="#5c0000" stroke-width="1.08" stroke-linecap="round" stroke-linejoin="round"/><path d="M156.8172,127.45595h1.57576l4.99266,14.49116h-6.56843v-14.49116" fill="#bfecff" stroke="none" stroke-width="1" stroke-linecap="butt" stroke-linejoin="miter"/><path d="M170.33555,127.45595v14.49116h-2.0236l-4.99266,-14.49116h7.01627" fill="#bfecff" stroke="none" stroke-width="1" stroke-linecap="butt" stroke-linejoin="miter"/><path d="M163.31927,127.45595l4.99266,14.49116h-2.50463l-5.00925,-14.49116h2.52122" fill="#ffeef6" stroke="none" stroke-width="1" stroke-linecap="butt" stroke-linejoin="miter"/><path d="M176.72152,127.40551h2.04019c1.01181,4.48856 2.6705,11.76775 3.31739,14.49116h-1.89091l-4.66093,-13.44886c0.1139,-0.58447 0.60708,-1.01483 1.19426,-1.04228z" fill="#f7c1d8" stroke="none" stroke-width="1" stroke-linecap="butt" stroke-linejoin="miter"/><path d="M178.76171,141.9471h-2.04019c-0.68947,-0.00897 -1.24402,-0.5783 -1.24402,-1.27764v-8.59047z" fill="#f7c1d8" stroke="none" stroke-width="1" stroke-linecap="butt" stroke-linejoin="miter"/><path d="M175.47749,128.71677c-0.00829,-0.08406 -0.00829,-0.16811 0,-0.25216l4.66093,13.44886h-1.3933l-3.31739,-9.86811z" fill="#ffeef6" stroke="none" stroke-width="1" stroke-linecap="butt" stroke-linejoin="miter"/><path d="M160.79806,127.45595l5.00925,14.49116h-1.31037l-4.99266,-14.49116h1.29378" fill="#bfecff" stroke="none" stroke-width="1" stroke-linecap="butt" stroke-linejoin="miter"/><path d="M159.50428,127.45595l4.99266,14.49116h-1.11132l-4.99266,-14.49116h1.11132" fill="#ffeef6" stroke="none" stroke-width="1" stroke-linecap="butt" stroke-linejoin="miter"/><path d="M181.88006,124.14417c0.69665,0 0.86252,0.73969 1.26061,2.08458c0.54737,1.86603 1.47624,5.44679 1.47624,5.44679h-2.57097l-1.82456,-7.53137z" fill="#43c3d7" stroke="#5e154d" stroke-width="1.08" stroke-linecap="round" stroke-linejoin="round"/><path d="M180.22137,124.14417l0.48102,1.95009h-2.23923l-0.43125,-1.95009h2.18948" fill="#43c3d7" stroke="#5e154d" stroke-width="1.08" stroke-linecap="round" stroke-linejoin="round"/><path d="M174.03443,120.88281c2.40511,0 3.43349,0.65563 3.99746,3.21092c0.11611,0.6052 0.39809,1.8156 0.72983,3.36222c1.01181,4.48856 2.6705,11.76775 3.31739,14.49116l0.26539,1.10953c0,0 10.10144,5.66533 12.27433,6.90936c2.47146,1.39532 2.45487,2.60572 2.45487,5.58128v17.09687h-11.09666c0,-5.77517 -4.6189,-10.4565 -10.31707,-10.4565c-5.69817,0 -10.31707,4.68132 -10.31707,10.4565h-13.66763v-51.76134z" fill="none" stroke="#5e154d" stroke-width="1.44" stroke-linecap="butt" stroke-linejoin="round"/><path d="M170.33555,141.9471h-13.51835v-14.49116h13.51835z" fill="none" stroke="#5e154d" stroke-width="1.08" stroke-linecap="round" stroke-linejoin="round"/><path d="M174.03443,120.88281c2.40511,0 3.43349,0.65563 3.99746,3.21092c0.11611,0.6052 0.39809,1.8156 0.72983,3.36222c1.01181,4.48856 2.6705,11.76775 3.31739,14.49116l0.26539,1.10953c0,0 10.10144,5.66533 12.27433,6.90936c2.47146,1.39532 2.45487,2.60572 2.45487,5.58128v17.09687h-11.09666c0,-5.77517 -4.6189,-10.4565 -10.31707,-10.4565c-5.69817,0 -10.31707,4.68132 -10.31707,10.4565h-13.66763v-51.76134z" fill="none" stroke="#5e154d" stroke-width="1.44" stroke-linecap="round" stroke-linejoin="round"/><path d="M175.49408,128.46461c0.12993,-0.58334 0.63749,-1.00026 1.22743,-1.00867h2.04019c1.01181,4.48856 2.6705,11.76775 3.31739,14.49116h-5.35758c-0.68947,-0.00897 -1.24402,-0.5783 -1.24402,-1.27764v-11.95269c-0.00277,-0.08461 0.00277,-0.16867 0.01659,-0.25216z" fill="none" stroke="#5e154d" stroke-width="1.08" stroke-linecap="round" stroke-linejoin="round"/><path d="M198.28453,168.12196v1.56343h-7.31483l-0.33174,-1.56343h7.64657" fill="#00828c" stroke="#5e154d" stroke-width="1.08" stroke-linecap="round" stroke-linejoin="round"/><path d="M198.28453,171.0639h-7.03286l-0.28198,-1.3785h7.31483v1.3785" fill="#00828c" stroke="#5e154d" stroke-width="1.08" stroke-linecap="round" stroke-linejoin="round"/><path d="M190.35597,166.74345h7.92855v1.3785h-7.64657l-0.28198,-1.3785" fill="#00828c" stroke="#5e154d" stroke-width="1.08" stroke-linecap="round" stroke-linejoin="round"/><path d="M197.04051,158.20342h1.24402c0.96204,0 1.37671,1.42895 1.54259,2.87469h-2.78661z" fill="#fdbb38" stroke="none" stroke-width="1" stroke-linecap="butt" stroke-linejoin="miter"/><path d="M199.82711,161.02768c0.11113,0.95375 0.14983,1.91478 0.11611,2.87469h-2.90271v-2.87469z" fill="#ffffff" stroke="none" stroke-width="1" stroke-linecap="butt" stroke-linejoin="miter"/><path d="M198.28453,158.20342c0.96204,0 1.37671,1.42895 1.54259,2.87469c0.11113,0.95375 0.14983,1.91478 0.11611,2.87469h-2.90271v-5.74939z" fill="none" stroke="#5e154d" stroke-width="1.44" stroke-linecap="round" stroke-linejoin="round"/></g><g data-paper-data="{&quot;index&quot;:null}"><path d="M60.36846,131.25102c0,-3.40297 1.87165,-4.64947 4.83255,-4.64947h85.068v33.99223h-89.90054z" fill="#ffde00" stroke="none" stroke-width="1" stroke-linecap="butt" stroke-linejoin="miter"/><path d="M60.36846,131.25102c0,-3.40297 1.87165,-4.64947 4.83255,-4.64947h85.068v33.99223h-89.90054z" fill="#ffea65" stroke="#5e154d" stroke-width="1.44" stroke-linecap="round" stroke-linejoin="round"/><path d="M62.76173,131.58758v-0.97227c-0.07927,-0.62408 0.20046,-1.24319 0.75838,-1.67697c0.55791,-0.43378 1.33112,-0.63363 2.09512,-0.54182h1.64153" fill="#ffde00" stroke="#ffffff" stroke-width="1.8" stroke-linecap="round" stroke-linejoin="round"/><path d="M152.29407,160.59379h-2.02507v-28.18351h2.02507z" fill="#ffde00" stroke="#5e154d" stroke-width="1.08" stroke-linecap="round" stroke-linejoin="round"/></g></g></g></svg>