<svg version="1.1" xmlns="http://www.w3.org/2000/svg" xmlns:xlink="http://www.w3.org/1999/xlink" width="106.35071" height="44.60703" viewBox="0,0,106.35071,44.60703"><defs><linearGradient x1="216.82568" y1="480.00016" x2="323.17523" y2="480.00016" gradientUnits="userSpaceOnUse" id="color-1"><stop offset="0.012" stop-color="#66b3e3"/><stop offset="1" stop-color="#1c75bc"/></linearGradient></defs><g transform="translate(-216.82465,-457.69649)"><g data-paper-data="{&quot;isPaintingLayer&quot;:true}" fill-rule="nonzero" stroke="none" stroke-width="1" stroke-linecap="butt" stroke-linejoin="miter" stroke-miterlimit="10" stroke-dasharray="" stroke-dashoffset="0" style="mix-blend-mode: normal"><path d="M323.17535,495.28267c0,3.87718 -4.50408,7.02084 -10.05645,7.02084h-86.23897c-5.55355,0 -10.05529,-3.14448 -10.05529,-7.02084v-30.56615c0,-3.87718 4.50175,-7.02003 10.05529,-7.02003h86.2378c5.5559,0 10.05645,3.14286 10.05645,7.02003v30.56615z" fill="url(#color-1)"/><path d="M319.18431,464.71651v30.56535c0,2.33511 -2.71952,4.23453 -6.0666,4.23453h-86.2378c-3.34359,0 -6.06543,-1.89942 -6.06543,-4.23453v-30.56615c0,-2.33511 2.72185,-4.23453 6.06543,-4.23453h86.2378c3.34709,0 6.0666,1.90024 6.0666,4.23535z" fill="#bfd8ff"/><text transform="translate(229.78404,484.8875) scale(0.40729,0.40729)" font-size="40" xml:space="preserve" fill="#004bbe" fill-rule="nonzero" stroke="none" stroke-width="1" stroke-linecap="butt" stroke-linejoin="miter" stroke-miterlimit="10" stroke-dasharray="" stroke-dashoffset="0" font-family="Sans Serif" font-weight="normal" text-anchor="start" style="mix-blend-mode: normal"><tspan x="0" dy="0">ERASE ALL</tspan></text></g></g></svg>